<svg xmlns="http://www.w3.org/2000/svg" xmlns:xlink="http://www.w3.org/1999/xlink" width="106" height="47" viewBox="0 0 106 47">
  <defs>
    <path id="group-26-b" d="M9.05565407,23.0976422 L9.43828734,23.0753555 C10.6287079,23.0060188 11.4860813,22.6797371 12.0104332,22.0965007 C12.5347851,21.5132642 12.7969572,20.7256492 12.7969572,19.7336321 C12.7969572,18.741615 12.5347851,17.9845407 12.0104332,17.4623866 C11.4860813,16.9402325 10.6287079,16.7138272 9.43828734,16.7831639 L9.05565407,16.8054506 L9.05565407,23.0976422 Z M26.5608473,22.3913767 C26.5608473,20.3506557 26.9505625,18.4006379 27.7300045,16.5412646 C28.5094466,14.6818914 29.5723061,13.0398666 30.9186151,11.6151411 C32.2649241,10.1904156 33.845042,9.03552119 35.6590162,8.1504232 C37.4729904,7.2653252 39.4003091,6.76335226 41.44103,6.64448931 C43.481751,6.52562637 45.4090697,6.80308377 47.2230439,7.47686986 C49.0370181,8.15065595 50.617136,9.12148065 51.963445,10.3893731 C53.309754,11.6572656 54.3726135,13.1754766 55.1520556,14.9440517 C55.9314976,16.7126269 56.3212128,18.6172464 56.3212128,20.6579674 C56.3212128,22.6986884 55.9314976,24.6487062 55.1520556,26.5080795 C54.3726135,28.3674527 53.309754,30.0094775 51.963445,31.434203 C50.617136,32.8589285 49.0370181,34.0138229 47.2230439,34.8989209 C45.4090697,35.7840189 43.481751,36.2859918 41.44103,36.4048548 C39.4003091,36.5237177 37.4729904,36.2462603 35.6590162,35.5724743 C33.845042,34.8986882 32.2649241,33.9278635 30.9186151,32.659971 C29.5723061,31.3920786 28.5094466,29.8738675 27.7300045,28.1052924 C26.9505625,26.3367172 26.5608473,24.4320977 26.5608473,22.3913767 Z M35.4889569,21.8713539 C35.4889569,22.693311 35.644843,23.4565759 35.9566198,24.1611717 C36.2683966,24.8657674 36.6935405,25.4716347 37.2320641,25.9787916 C37.7705877,26.4859486 38.4012177,26.874361 39.123973,27.1440406 C39.8467284,27.4137201 40.619073,27.5246205 41.44103,27.4767452 C42.2629871,27.4288698 43.0353317,27.2279981 43.7580871,26.874124 C44.4808424,26.5202499 45.1114724,26.0583746 45.649996,25.4884844 C46.1885196,24.9185942 46.6136634,24.2632015 46.9254403,23.5222865 C47.2372171,22.7813715 47.3931031,21.9999473 47.3931031,21.1779902 C47.3931031,20.3560331 47.2372171,19.5927682 46.9254403,18.8881725 C46.6136634,18.1835767 46.1885196,17.5777095 45.649996,17.0705525 C45.1114724,16.5633955 44.4808424,16.1749831 43.7580871,15.9053035 C43.0353317,15.635624 42.2629871,15.5247236 41.44103,15.572599 C40.619073,15.6204743 39.8467284,15.821346 39.123973,16.1752201 C38.4012177,16.5290943 37.7705877,16.9909695 37.2320641,17.5608597 C36.6935405,18.1307499 36.2683966,18.7861426 35.9566198,19.5270576 C35.644843,20.2679726 35.4889569,21.0493969 35.4889569,21.8713539 Z M61.667171,6.20488878 L71.2755175,5.64524519 L71.2755175,34.002622 L61.667171,34.5622656 L61.667171,6.20488878 Z M79.0466238,1.36734941 L88.74,0.802753225 L87.2944965,20.8689071 L80.4921273,21.2651149 L79.0466238,1.36734941 Z M79.3442275,26.6074192 L88.4423963,26.0774912 L88.4423963,33.1774641 L79.3442275,33.7073921 L79.3442275,26.6074192 Z M22.0651853,19.1937989 C22.0651853,21.1494898 21.7250702,22.8344467 21.0448299,24.24872 C20.3645896,25.6629933 19.4363589,26.8295183 18.26011,27.74833 C17.0838611,28.6671417 15.7092294,29.3707522 14.1361736,29.8591826 C12.5631178,30.3476129 10.8696283,30.6446517 9.05565407,30.7503076 L9.05565407,37.5101621 L0,38.0376138 L0,9.68023693 L9.05565407,9.15278523 C10.8696283,9.04712927 12.5631178,9.14689147 14.1361736,9.4520748 C15.7092294,9.75725814 17.0838611,10.3007362 18.26011,11.0825253 C19.4363589,11.8643145 20.3645896,12.9227088 21.0448299,14.2577402 C21.7250702,15.5927715 22.0651853,17.238108 22.0651853,19.1937989 Z"/>
    <filter id="group-26-a" width="109%" height="127%" x="-4.5%" y="-5.5%" filterUnits="objectBoundingBox">
      <feMorphology in="SourceAlpha" operator="dilate" radius="1" result="shadowSpreadOuter1"/>
      <feOffset dx="2" dy="2" in="shadowSpreadOuter1" result="shadowOffsetOuter1"/>
      <feComposite in="shadowOffsetOuter1" in2="SourceAlpha" operator="out" result="shadowOffsetOuter1"/>
      <feColorMatrix in="shadowOffsetOuter1" result="shadowMatrixOuter1" values="0 0 0 0 1   0 0 0 0 0.270588235   0 0 0 0 0.396078431  0 0 0 1 0"/>
      <feMorphology in="SourceAlpha" operator="dilate" radius="1" result="shadowSpreadOuter2"/>
      <feOffset dx="-2" dy="2" in="shadowSpreadOuter2" result="shadowOffsetOuter2"/>
      <feComposite in="shadowOffsetOuter2" in2="SourceAlpha" operator="out" result="shadowOffsetOuter2"/>
      <feColorMatrix in="shadowOffsetOuter2" result="shadowMatrixOuter2" values="0 0 0 0 1   0 0 0 0 0.82677704   0 0 0 0 0.0877130682  0 0 0 1 0"/>
      <feMorphology in="SourceAlpha" operator="dilate" radius="1" result="shadowSpreadOuter3"/>
      <feOffset dy="2" in="shadowSpreadOuter3" result="shadowOffsetOuter3"/>
      <feComposite in="shadowOffsetOuter3" in2="SourceAlpha" operator="out" result="shadowOffsetOuter3"/>
      <feColorMatrix in="shadowOffsetOuter3" result="shadowMatrixOuter3" values="0 0 0 0 0.0843197601   0 0 0 0 0.629560066   0 0 0 0 1  0 0 0 1 0"/>
      <feMerge>
        <feMergeNode in="shadowMatrixOuter1"/>
        <feMergeNode in="shadowMatrixOuter2"/>
        <feMergeNode in="shadowMatrixOuter3"/>
      </feMerge>
    </filter>
  </defs>
  <g fill="none" fill-rule="evenodd">
    <g transform="translate(8 3)">
      <use fill="#000" filter="url(#group-26-a)" xlink:href="#group-26-b"/>
      <use fill="#FFF" xlink:href="#group-26-b"/>
    </g>
    <path fill="#FFF" stroke="#000" stroke-width="2" d="M9.05565407,23.0976422 L9.43828734,23.0753555 C10.6287079,23.0060188 11.4860813,22.6797371 12.0104332,22.0965007 C12.5347851,21.5132642 12.7969572,20.7256492 12.7969572,19.7336321 C12.7969572,18.741615 12.5347851,17.9845407 12.0104332,17.4623866 C11.4860813,16.9402325 10.6287079,16.7138272 9.43828734,16.7831639 L9.05565407,16.8054506 L9.05565407,23.0976422 Z M26.5608473,22.3913767 C26.5608473,20.3506557 26.9505625,18.4006379 27.7300045,16.5412646 C28.5094466,14.6818914 29.5723061,13.0398666 30.9186151,11.6151411 C32.2649241,10.1904156 33.845042,9.03552119 35.6590162,8.1504232 C37.4729904,7.2653252 39.4003091,6.76335226 41.44103,6.64448931 C43.481751,6.52562637 45.4090697,6.80308377 47.2230439,7.47686986 C49.0370181,8.15065595 50.617136,9.12148065 51.963445,10.3893731 C53.309754,11.6572656 54.3726135,13.1754766 55.1520556,14.9440517 C55.9314976,16.7126269 56.3212128,18.6172464 56.3212128,20.6579674 C56.3212128,22.6986884 55.9314976,24.6487062 55.1520556,26.5080795 C54.3726135,28.3674527 53.309754,30.0094775 51.963445,31.434203 C50.617136,32.8589285 49.0370181,34.0138229 47.2230439,34.8989209 C45.4090697,35.7840189 43.481751,36.2859918 41.44103,36.4048548 C39.4003091,36.5237177 37.4729904,36.2462603 35.6590162,35.5724743 C33.845042,34.8986882 32.2649241,33.9278635 30.9186151,32.659971 C29.5723061,31.3920786 28.5094466,29.8738675 27.7300045,28.1052924 C26.9505625,26.3367172 26.5608473,24.4320977 26.5608473,22.3913767 Z M35.4889569,21.8713539 C35.4889569,22.693311 35.644843,23.4565759 35.9566198,24.1611717 C36.2683966,24.8657674 36.6935405,25.4716347 37.2320641,25.9787916 C37.7705877,26.4859486 38.4012177,26.874361 39.123973,27.1440406 C39.8467284,27.4137201 40.619073,27.5246205 41.44103,27.4767452 C42.2629871,27.4288698 43.0353317,27.2279981 43.7580871,26.874124 C44.4808424,26.5202499 45.1114724,26.0583746 45.649996,25.4884844 C46.1885196,24.9185942 46.6136634,24.2632015 46.9254403,23.5222865 C47.2372171,22.7813715 47.3931031,21.9999473 47.3931031,21.1779902 C47.3931031,20.3560331 47.2372171,19.5927682 46.9254403,18.8881725 C46.6136634,18.1835767 46.1885196,17.5777095 45.649996,17.0705525 C45.1114724,16.5633955 44.4808424,16.1749831 43.7580871,15.9053035 C43.0353317,15.635624 42.2629871,15.5247236 41.44103,15.572599 C40.619073,15.6204743 39.8467284,15.821346 39.123973,16.1752201 C38.4012177,16.5290943 37.7705877,16.9909695 37.2320641,17.5608597 C36.6935405,18.1307499 36.2683966,18.7861426 35.9566198,19.5270576 C35.644843,20.2679726 35.4889569,21.0493969 35.4889569,21.8713539 Z M61.667171,6.20488878 L71.2755175,5.64524519 L71.2755175,34.002622 L61.667171,34.5622656 L61.667171,6.20488878 Z M79.0466238,1.36734941 L88.74,0.802753225 L87.2944965,20.8689071 L80.4921273,21.2651149 L79.0466238,1.36734941 Z M79.3442275,26.6074192 L88.4423963,26.0774912 L88.4423963,33.1774641 L79.3442275,33.7073921 L79.3442275,26.6074192 Z M22.0651853,19.1937989 C22.0651853,21.1494898 21.7250702,22.8344467 21.0448299,24.24872 C20.3645896,25.6629933 19.4363589,26.8295183 18.26011,27.74833 C17.0838611,28.6671417 15.7092294,29.3707522 14.1361736,29.8591826 C12.5631178,30.3476129 10.8696283,30.6446517 9.05565407,30.7503076 L9.05565407,37.5101621 L0,38.0376138 L0,9.68023693 L9.05565407,9.15278523 C10.8696283,9.04712927 12.5631178,9.14689147 14.1361736,9.4520748 C15.7092294,9.75725814 17.0838611,10.3007362 18.26011,11.0825253 C19.4363589,11.8643145 20.3645896,12.9227088 21.0448299,14.2577402 C21.7250702,15.5927715 22.0651853,17.238108 22.0651853,19.1937989 Z" transform="translate(8 3)"/>
  </g>
</svg>
